# xmcd
#
# Track frame offsets:
#	150
#	17943
#	35586
#	58535
#	79752
#	111998
#	130841
#	150217
#	169567
#	191204
#	208496
#	225289
#
# Disc length: 3205 seconds
#
# Revision: 1
# Processed by: cddbd v1.5.2PL0 Copyright (c) Steve Scherf et al.
# Submitted via: audiograbber 1.83.01
#
DISCID=9a0c830c
DTITLE=BeBe Winans - 2004 - Dream
DYEAR=2004
DGENRE=Christian
TTITLE0=When You Pray
TTITLE1=Love Thang
TTITLE2=Love Me Anyway
TTITLE3=That's a Friend
TTITLE4=I Have a Dream
TTITLE5=Help Is On The Way
TTITLE6=So Glad
TTITLE7=Have You Ever Had
TTITLE8=If I Let My Heart Go
TTITLE9=Miracle Of Love
TTITLE10=Safe From Harm
TTITLE11=Benjamin
EXTD=
EXTT0=
EXTT1=
EXTT2=
EXTT3=
EXTT4=
EXTT5=
EXTT6=
EXTT7=
EXTT8=
EXTT9=
EXTT10=
EXTT11=
PLAYORDER=
